<?xml version="1.0" encoding="UTF-8"?>
<svg width="512" height="512" version="1.1" viewBox="0 0 128 128" xmlns="http://www.w3.org/2000/svg">
 <g transform="translate(-4.5413 -1.1331)" stroke="#ac4339" stroke-linecap="round" stroke-linejoin="round" stroke-width="7.559">
  <path d="m47.04 46.983c19.707-15.215 45.439-9.2566 49.905 9.5708 6.9076 29.121-25.272 43.077-48.88 33.84-15.737-6.1581-18.013-25.348-4.1018-35.549 8.6643-6.3538 40.97-10.905 39.309 8.2036-1.0921 12.559-18.514 17.912-28.712 11.964-5.7466-3.3522-1.9883-22.518 15.382-10.938" fill="#d29779"/>
  <g fill="none">
   <path d="m95.366 34.865c3.8776-5.6234 8.8218-11.898 13.673-16.749"/>
   <path d="m109.72 65.628c7.1352-1.7838 1.8141-0.49483 16.065-3.4181"/>
   <path d="m99.81 92.29c8.1979 7.287 2.0726 1.7992 18.116 16.749"/>
   <path d="m59.476 106.65c-1.823 5.469-3.646 10.938-5.469 16.407"/>
   <path d="m30.763 98.101c-5.3551 3.0763-10.71 6.1527-16.065 9.229"/>
   <path d="m23.243 53.665c-4.6911-1.7005-8.8621-4.4364-13.673-5.8109"/>
   <path d="m54.007 26.32c-2.3927-5.469-4.7854-10.938-7.1781-16.407"/>
  </g>
 </g>
</svg>
