<?xml version="1.0" encoding="UTF-8" standalone="no"?>
<!-- Created with Inkscape (http://www.inkscape.org/) -->

<svg
   width="200mm"
   height="200mm"
   viewBox="0 0 200 200"
   version="1.1"
   id="svg1"
   xml:space="preserve"
   xmlns:xlink="http://www.w3.org/1999/xlink"
   xmlns="http://www.w3.org/2000/svg"
   xmlns:svg="http://www.w3.org/2000/svg"><defs
     id="defs1"><linearGradient
       id="swatch41"><stop
         style="stop-color:#d9ac0a;stop-opacity:1;"
         offset="0"
         id="stop41" /></linearGradient><linearGradient
       id="swatch40"><stop
         style="stop-color:#ea763f;stop-opacity:1;"
         offset="0"
         id="stop40" /></linearGradient><linearGradient
       id="swatch39"><stop
         style="stop-color:#8dee52;stop-opacity:1;"
         offset="0"
         id="stop39" /></linearGradient><linearGradient
       id="swatch272"><stop
         style="stop-color:#532f80;stop-opacity:1;"
         offset="0"
         id="stop272" /></linearGradient><linearGradient
       id="swatch271"><stop
         style="stop-color:#532f80;stop-opacity:1;"
         offset="0"
         id="stop271" /></linearGradient><linearGradient
       id="swatch63"><stop
         style="stop-color:#fffddb;stop-opacity:1;"
         offset="0"
         id="stop63" /></linearGradient><linearGradient
       id="swatch33"><stop
         style="stop-color:#072139;stop-opacity:1;"
         offset="0"
         id="stop33" /></linearGradient><linearGradient
       id="swatch13"><stop
         style="stop-color:#532f80;stop-opacity:1;"
         offset="0"
         id="stop13" /></linearGradient><linearGradient
       id="swatch12"><stop
         style="stop-color:#cb4b2c;stop-opacity:1;"
         offset="0"
         id="stop12" /></linearGradient><linearGradient
       id="swatch11"><stop
         style="stop-color:#532f80;stop-opacity:1;"
         offset="0"
         id="stop11" /></linearGradient><linearGradient
       id="swatch10"><stop
         style="stop-color:#eb9206;stop-opacity:1;"
         offset="0"
         id="stop10" /></linearGradient><linearGradient
       id="swatch9"><stop
         style="stop-color:#532f80;stop-opacity:1;"
         offset="0"
         id="stop9" /></linearGradient><linearGradient
       id="swatch8"><stop
         style="stop-color:#ffeb69;stop-opacity:1;"
         offset="0"
         id="stop8" /></linearGradient><linearGradient
       id="swatch7"><stop
         style="stop-color:#532f80;stop-opacity:1;"
         offset="0"
         id="stop7" /></linearGradient><linearGradient
       id="swatch4"><stop
         style="stop-color:#532f80;stop-opacity:1;"
         offset="0"
         id="stop4" /></linearGradient><linearGradient
       id="swatch15"><stop
         style="stop-color:#b71f1f;stop-opacity:1;"
         offset="0"
         id="stop16" /></linearGradient><rect
       x="92.973618"
       y="168.17287"
       width="597.49219"
       height="407.44321"
       id="rect16" /><rect
       x="92.973618"
       y="168.17287"
       width="597.49219"
       height="407.44321"
       id="rect3" /><rect
       x="92.973618"
       y="168.17287"
       width="597.49219"
       height="407.44321"
       id="rect4" /><rect
       x="92.973618"
       y="168.17287"
       width="597.49219"
       height="407.44321"
       id="rect31" /><rect
       x="92.973618"
       y="168.17287"
       width="597.49219"
       height="407.44321"
       id="rect32" /><rect
       x="92.973618"
       y="168.17287"
       width="597.49219"
       height="407.44321"
       id="rect33" /><rect
       x="92.973618"
       y="168.17287"
       width="597.49219"
       height="407.44321"
       id="rect3-5" /><rect
       x="92.973618"
       y="168.17287"
       width="597.49219"
       height="407.44321"
       id="rect32-3" /><linearGradient
       xlink:href="#swatch33"
       id="linearGradient272"
       x1="14.530677"
       y1="100"
       x2="184.24809"
       y2="100"
       gradientUnits="userSpaceOnUse" /><linearGradient
       xlink:href="#swatch33"
       id="linearGradient41"
       x1="42.632252"
       y1="71.389801"
       x2="155.78709"
       y2="71.389801"
       gradientUnits="userSpaceOnUse" /><linearGradient
       xlink:href="#swatch33"
       id="linearGradient2"
       gradientUnits="userSpaceOnUse"
       x1="97.04586"
       y1="277.80582"
       x2="378.81946"
       y2="277.80582" /><linearGradient
       xlink:href="#swatch33"
       id="linearGradient3"
       gradientUnits="userSpaceOnUse"
       x1="97.04586"
       y1="277.80582"
       x2="378.81946"
       y2="277.80582" /><linearGradient
       xlink:href="#swatch33"
       id="linearGradient4"
       gradientUnits="userSpaceOnUse"
       x1="97.04586"
       y1="277.80582"
       x2="378.81946"
       y2="277.80582" /><linearGradient
       xlink:href="#swatch12"
       id="linearGradient5"
       gradientUnits="userSpaceOnUse"
       x1="92.148354"
       y1="277.61383"
       x2="385.82883"
       y2="277.61383" /><linearGradient
       xlink:href="#swatch10"
       id="linearGradient6"
       gradientUnits="userSpaceOnUse"
       x1="92.148354"
       y1="277.61383"
       x2="385.82883"
       y2="277.61383" /><linearGradient
       xlink:href="#swatch8"
       id="linearGradient7"
       gradientUnits="userSpaceOnUse"
       x1="92.148354"
       y1="277.61383"
       x2="385.82883"
       y2="277.61383" /><linearGradient
       xlink:href="#swatch33"
       id="linearGradient8"
       gradientUnits="userSpaceOnUse"
       x1="73.588409"
       y1="277.80582"
       x2="402.27692"
       y2="277.80582" /></defs><g
     id="layer4"><rect
       style="fill:#ffffff;fill-opacity:1;stroke:none;stroke-width:14.278;stroke-linejoin:round;stroke-dasharray:none;stroke-opacity:1"
       id="rect55"
       width="200"
       height="200"
       x="-1.0658141e-14"
       y="-3.5527137e-15"
       rx="47.914524"
       ry="47.914524" /></g><g
     id="layer2"
     style="display:inline;opacity:1"
     transform="matrix(0.95572122,0,0,0.95572122,4.4115805,4.4278785)"><path
       style="fill:#de253a;fill-opacity:1;stroke:url(#linearGradient272);stroke-width:11.879;stroke-linejoin:round;stroke-dasharray:none;stroke-opacity:1"
       d="m 149.50726,195.15347 c 16.92901,0 32.15111,-48.64169 32.15111,-83.73106 0,-64.475764 -36.43447,-106.9246559 -84.160202,-106.9246559 -47.72578,0 -80.377771,49.2747239 -80.377771,106.8997359 0,34.98038 14.935948,84.10475 31.763159,84.10475 8.550015,0 15.008706,-6.12469 15.008706,-15.17173 0,-5.87968 -5.462352,-19.13285 -8.437848,-19.13285 -3.300754,0 -6.155396,2.15185 -6.155396,2.15185 0,0 -5.749724,-13.90984 -5.749724,-41.31437 0,-42.110868 16.226466,-81.36436 53.948874,-81.36436 37.722362,0 56.931172,33.627798 56.931172,81.73806 0,22.84601 -4.94632,41.10568 -4.94632,41.10568 0,0 -3.68496,-2.91475 -5.8677,-2.91475 -4.41585,0 -9.31073,13.31081 -9.31073,18.16125 0,6.34169 4.64058,16.39245 15.20267,16.39245 z"
       id="path16" /><path
       d="m 50.895763,116.01689 c 0,-42.110875 8.879997,-81.364366 46.602405,-81.364366 37.722342,0 50.025422,33.627796 50.025422,81.738066"
       style="fill:#34f2f4;fill-opacity:1;stroke:url(#linearGradient41);stroke-width:19.4052;stroke-linejoin:round;stroke-dasharray:none;stroke-opacity:1"
       id="path1" /><path
       d="m 50.895763,116.01689 c 0,-42.110875 8.879997,-81.364366 46.602405,-81.364366 37.722342,0 50.025422,33.627796 50.025422,81.738066"
       style="display:inline;opacity:1;fill:none;fill-opacity:1;stroke:#eeb518;stroke-width:14.6768;stroke-linejoin:round;stroke-dasharray:none;stroke-opacity:1"
       id="path39" /><g
       id="g6"
       style="opacity:0.378;mix-blend-mode:darken;fill:#13d636;fill-opacity:1"><path
         id="ellipse28"
         style="opacity:1;mix-blend-mode:normal;fill:#13d636;fill-opacity:1;stroke:none;stroke-width:3.80499;stroke-linejoin:round;stroke-dasharray:none;stroke-opacity:1"
         d="m 69.201288,24.067263 c -1.654419,0.01095 -4.186058,1.080296 -6.573288,2.776474 -3.547599,2.520638 -5.681773,5.621606 -4.766507,6.925764 0.914713,1.304225 4.531503,0.318503 8.078502,-2.201718 3.54709,-2.520351 5.681118,-5.620872 4.766506,-6.925234 -0.267974,-0.382577 -0.784513,-0.579997 -1.505213,-0.575286 z m 60.167782,-5e-6 c -0.7207,-0.0047 -1.23724,0.192709 -1.50522,0.575286 -0.9142,1.304583 1.22002,4.405044 4.76705,6.925234 3.54699,2.520223 7.16379,3.505946 8.0785,2.201718 0.91486,-1.304377 -1.21951,-4.40529 -4.76704,-6.925765 -2.38723,-1.696179 -4.91887,-2.765511 -6.57329,-2.776473 z m -84.976324,24.53952 c -1.542051,0.132988 -3.862783,2.46161 -5.623157,5.642271 -2.11313,3.817794 -2.70331,7.542822 -1.31825,8.320382 1.38538,0.777378 4.221769,-1.687875 6.335097,-5.506159 2.113277,-3.818166 2.703246,-7.543365 1.317721,-8.320383 -0.202277,-0.113573 -0.441149,-0.159276 -0.711411,-0.136111 z m 109.784864,-3e-6 c -0.27025,-0.02317 -0.50914,0.02255 -0.71141,0.136112 -1.38553,0.777011 -0.79555,4.502213 1.31772,8.320383 2.11332,3.818289 4.94973,6.283544 6.33511,5.506158 1.38551,-0.777023 0.79554,-4.50222 -1.31773,-8.320383 -1.76061,-3.181066 -4.08168,-5.5098 -5.62369,-5.64227 z M 32.001943,79.474442 c -1.50318,0.220613 -3.156929,3.349695 -3.852816,7.289972 -0.760075,4.303516 -0.11027,8.018781 1.451342,8.298051 1.561495,0.279616 3.443486,-2.982343 4.203504,-7.285718 0.760074,-4.303515 0.110267,-8.018779 -1.451341,-8.298052 -0.113867,-0.02039 -0.230976,-0.0218 -0.350689,-0.0042 z m 134.566997,6e-6 c -0.11991,-0.01763 -0.23718,-0.01623 -0.35121,0.0042 -1.56128,0.280017 -2.2108,3.995056 -1.45081,8.298052 0.75992,4.302776 2.64154,7.564505 4.20296,7.285719 1.56161,-0.279269 2.21143,-3.994534 1.45135,-8.298054 -0.69579,-3.939769 -2.34921,-7.068671 -3.85229,-7.28997 z M 29.545013,111.20824 c -1.583515,0.0905 -2.667237,3.70172 -2.420487,8.0657 0.24675,4.36347 1.730248,7.82715 3.31358,7.73658 1.583427,-0.0904 2.667117,-3.70144 2.420488,-8.06516 -0.246653,-4.36366 -1.730181,-7.82766 -3.313581,-7.73712 z m 139.480867,4e-5 c -1.58357,-0.0913 -3.06744,3.37288 -3.31412,7.73712 -0.24662,4.36373 0.83706,7.97464 2.42049,8.06517 1.58334,0.0905 3.06683,-3.3731 3.31358,-7.73658 0.24673,-4.36343 -0.83668,-7.97442 -2.41995,-8.06571 z M 33.444305,142.29021 c -0.120508,-0.0113 -0.237441,-0.004 -0.350158,0.0223 -1.545166,0.36013 -2.003668,4.10415 -1.024073,8.3624 0.979516,4.25795 3.026028,7.41769 4.571091,7.05761 1.545167,-0.36012 2.003668,-4.10415 1.024073,-8.36239 -0.896836,-3.89851 -2.708517,-6.93732 -4.220933,-7.07995 z m 131.681745,5e-5 c -1.51243,0.14263 -3.32409,3.18142 -4.22094,7.07994 -0.97958,4.25822 -0.52109,8.00226 1.02408,8.36239 1.54505,0.36008 3.59158,-2.79967 4.5711,-7.05762 0.97959,-4.25825 0.52109,-8.00229 -1.02408,-8.3624 -0.11272,-0.0262 -0.22965,-0.0337 -0.35016,-0.0223 z" /><ellipse
         style="fill:#13d636;fill-opacity:1;stroke:none;stroke-width:11.879;stroke-linejoin:round;stroke-dasharray:none"
         id="path6"
         cx="-33.33548"
         cy="167.6301"
         rx="2.9853129"
         ry="5.0494328"
         transform="rotate(-24.568569)" /><ellipse
         style="fill:#13d636;fill-opacity:1;stroke:none;stroke-width:11.879;stroke-linejoin:round;stroke-dasharray:none"
         id="ellipse6"
         cx="-214.0787"
         cy="84.99929"
         rx="2.9853129"
         ry="5.0494328"
         transform="matrix(-0.90946433,-0.41578195,-0.41578195,0.90946433,0,0)" /><ellipse
         style="fill:#13d636;fill-opacity:1;stroke:none;stroke-width:11.879;stroke-linejoin:round;stroke-dasharray:none"
         id="path7"
         cx="2.5968895"
         cy="65.956764"
         rx="5.8465285"
         ry="1.5225335"
         transform="rotate(-49.225819)" /><ellipse
         style="fill:#13d636;fill-opacity:1;stroke:none;stroke-width:11.879;stroke-linejoin:round;stroke-dasharray:none"
         id="ellipse7"
         cx="-127.22353"
         cy="-84.57872"
         rx="5.8465285"
         ry="1.5225335"
         transform="matrix(-0.65307942,-0.75728943,-0.75728943,0.65307942,0,0)" /></g></g><g
     id="layer1"
     style="display:inline;fill:#ffffff"
     transform="matrix(0.96905897,0,0,0.96905897,3.0781758,3.106097)"><g
       id="g16"
       transform="matrix(2.0172756,0,0,2.0172756,-163.45669,-93.076383)"
       style="display:none;fill:#ffffff"><text
         xml:space="preserve"
         transform="matrix(0.26458333,0,0,0.26458333,65.780406,25.335465)"
         id="text29"
         style="font-style:normal;font-variant:normal;font-weight:800;font-stretch:normal;font-size:192px;font-family:Lexend;-inkscape-font-specification:'Lexend, Ultra-Bold';font-variant-ligatures:normal;font-variant-caps:normal;font-variant-numeric:normal;font-variant-east-asian:normal;white-space:pre;shape-inside:url(#rect31);display:inline;fill:#ffffff;fill-opacity:1;stroke:url(#linearGradient2);stroke-width:51.2837;stroke-linejoin:round;stroke-dasharray:none;stroke-opacity:1"><tspan
           x="92.972656"
           y="345.77383"
           id="tspan1">GR</tspan></text><text
         xml:space="preserve"
         transform="matrix(0.26458333,0,0,0.26458333,67.375998,26.931056)"
         id="text30"
         style="font-style:normal;font-variant:normal;font-weight:800;font-stretch:normal;font-size:192px;font-family:Lexend;-inkscape-font-specification:'Lexend, Ultra-Bold';font-variant-ligatures:normal;font-variant-caps:normal;font-variant-numeric:normal;font-variant-east-asian:normal;white-space:pre;shape-inside:url(#rect32);display:inline;fill:#ffffff;fill-opacity:1;stroke:url(#linearGradient3);stroke-width:51.2837;stroke-linejoin:round;stroke-dasharray:none;stroke-opacity:1"><tspan
           x="92.972656"
           y="345.77383"
           id="tspan2">GR</tspan></text><text
         xml:space="preserve"
         transform="matrix(0.26458333,0,0,0.26458333,68.97159,28.526649)"
         id="text31"
         style="font-style:normal;font-variant:normal;font-weight:800;font-stretch:normal;font-size:192px;font-family:Lexend;-inkscape-font-specification:'Lexend, Ultra-Bold';font-variant-ligatures:normal;font-variant-caps:normal;font-variant-numeric:normal;font-variant-east-asian:normal;white-space:pre;shape-inside:url(#rect33);display:inline;fill:#ffffff;fill-opacity:1;stroke:url(#linearGradient4);stroke-width:51.2837;stroke-linejoin:round;stroke-dasharray:none;stroke-opacity:1"><tspan
           x="92.972656"
           y="345.77383"
           id="tspan3">GR</tspan></text><text
         xml:space="preserve"
         transform="matrix(0.26458333,0,0,0.26458333,65.780406,25.335465)"
         id="text16"
         style="font-style:normal;font-variant:normal;font-weight:800;font-stretch:normal;font-size:192px;font-family:Lexend;-inkscape-font-specification:'Lexend, Ultra-Bold';font-variant-ligatures:normal;font-variant-caps:normal;font-variant-numeric:normal;font-variant-east-asian:normal;white-space:pre;shape-inside:url(#rect16);display:inline;fill:#ffffff;fill-opacity:1;stroke:url(#linearGradient5);stroke-width:7.59759;stroke-linejoin:round;stroke-dasharray:none;stroke-opacity:1"><tspan
           x="92.972656"
           y="345.77383"
           id="tspan4">GR</tspan></text><text
         xml:space="preserve"
         transform="matrix(0.26458333,0,0,0.26458333,67.375998,26.931056)"
         id="text3"
         style="font-style:normal;font-variant:normal;font-weight:800;font-stretch:normal;font-size:192px;font-family:Lexend;-inkscape-font-specification:'Lexend, Ultra-Bold';font-variant-ligatures:normal;font-variant-caps:normal;font-variant-numeric:normal;font-variant-east-asian:normal;white-space:pre;shape-inside:url(#rect3);display:inline;fill:#ffffff;fill-opacity:1;stroke:url(#linearGradient6);stroke-width:7.59759;stroke-linejoin:round;stroke-dasharray:none;stroke-opacity:1"><tspan
           x="92.972656"
           y="345.77383"
           id="tspan5">GR</tspan></text><text
         xml:space="preserve"
         transform="matrix(0.26458333,0,0,0.26458333,68.97159,28.526649)"
         id="text4"
         style="font-style:normal;font-variant:normal;font-weight:800;font-stretch:normal;font-size:192px;font-family:Lexend;-inkscape-font-specification:'Lexend, Ultra-Bold';font-variant-ligatures:normal;font-variant-caps:normal;font-variant-numeric:normal;font-variant-east-asian:normal;white-space:pre;shape-inside:url(#rect4);display:inline;fill:#ffffff;fill-opacity:1;stroke:url(#linearGradient7);stroke-width:7.59759;stroke-linejoin:round;stroke-dasharray:none;stroke-opacity:1"><tspan
           x="92.972656"
           y="345.77383"
           id="tspan6">GR</tspan></text></g><g
       id="g44"
       transform="matrix(1.1238307,0,0,0.91945729,-13.96685,-4.3106605)"
       style="fill:#ffffff"><text
         xml:space="preserve"
         transform="matrix(0.54711408,0,0,0.56580997,-29.330127,-42.882353)"
         id="text30-8"
         style="font-style:normal;font-variant:normal;font-weight:900;font-stretch:normal;font-size:192px;font-family:Lexend;-inkscape-font-specification:'Lexend, Heavy';font-variant-ligatures:normal;font-variant-caps:normal;font-variant-numeric:normal;font-variant-east-asian:normal;white-space:pre;shape-inside:url(#rect32-3);display:inline;fill:#ffffff;fill-opacity:1;stroke:url(#linearGradient8);stroke-width:50.3326;stroke-linejoin:round;stroke-dasharray:none;stroke-opacity:1"><tspan
           x="92.972656"
           y="345.77383"
           id="tspan7">GR</tspan></text><text
         xml:space="preserve"
         transform="matrix(0.5337375,0,0,0.5337375,-26.147402,-33.972434)"
         id="text3-0"
         style="font-style:normal;font-variant:normal;font-weight:900;font-stretch:normal;font-size:192px;font-family:Lexend;-inkscape-font-specification:'Lexend, Heavy';font-variant-ligatures:normal;font-variant-caps:normal;font-variant-numeric:normal;font-variant-east-asian:normal;white-space:pre;shape-inside:url(#rect3-5);display:inline;fill:#ffffff;fill-opacity:1;stroke:none;stroke-width:0;stroke-linejoin:round;stroke-dasharray:none;stroke-opacity:1"><tspan
           x="92.972656"
           y="345.77383"
           id="tspan8">GR</tspan></text></g></g></svg>
